# xmcd
#
# Track frame offsets: 
#        150
#        10474
#        25945
#        38819
#        55871
#        71231
#        74116
#        86129
#        92213
#        108009
#        120515
#        138639
#        151114
#        167889
#
# Disc length: 2343 seconds
#
# Revision: 0
# Processed by: cddbd v1.5.2PL0 Copyright (c) Steve Scherf et al.
# Submitted via: ExactAudioCopyFreeDBPlugin 1.0
#
DISCID=c309250e
DTITLE=The HELL - Brutopia
DYEAR=2015
DGENRE=Heavy Metal
TTITLE0=One More Time
TTITLE1=I've Got Loads Of Money
TTITLE2=Sick
TTITLE3=The Fever
TTITLE4=Shite Club
TTITLE5=Gather Round
TTITLE6=Brutopia
TTITLE7=DH1 Classic Album
TTITLE8=Painiac
TTITLE9=We're All The Same
TTITLE10=Just Curious
TTITLE11=Fuck You All
TTITLE12=Don't Be A Dick
TTITLE13=Mandatory Voicemail Skit
EXTD=
EXTT0=
EXTT1=
EXTT2=
EXTT3=
EXTT4=
EXTT5=
EXTT6=
EXTT7=
EXTT8=
EXTT9=
EXTT10=
EXTT11=
EXTT12=
EXTT13=
PLAYORDER=
